<svg xmlns="http://www.w3.org/2000/svg" x="0px" y="0px" width="24" height="24" viewBox="0 0 192 192" style=" fill:#000000;"><g fill="none" fill-rule="nonzero" stroke="none" stroke-width="1" stroke-linecap="butt" stroke-linejoin="miter" stroke-miterlimit="10" stroke-dasharray="" stroke-dashoffset="0" font-family="none" font-weight="none" font-size="none" text-anchor="none" style="mix-blend-mode: normal"><path d="M0,192v-192h192v192z" fill="none"></path><g fill="#8a99a4"><path d="M76.74,7.6275c-2.11782,0.0331 -3.809,1.77462 -3.78,3.8925v19.2c-0.01959,1.38484 0.708,2.67295 1.90415,3.37109c1.19615,0.69814 2.67555,0.69814 3.8717,0c1.19615,-0.69814 1.92374,-1.98625 1.90415,-3.37109v-19.2c0.01421,-1.03795 -0.39236,-2.03745 -1.12708,-2.77076c-0.73472,-0.73331 -1.735,-1.13795 -2.77292,-1.12174zM176.565,11.4825c-0.99763,0.02973 -1.94449,0.44667 -2.64,1.1625l-161.28,161.28c-1.00315,0.96314 -1.40725,2.39334 -1.05643,3.73903c0.35081,1.34569 1.40171,2.39659 2.7474,2.7474c1.34569,0.35081 2.77589,-0.05328 3.73903,-1.05644l161.28,-161.28c1.13572,-1.10397 1.4772,-2.79193 0.85991,-4.25054c-0.6173,-1.45861 -2.06674,-2.38864 -3.64991,-2.34195zM30.6,26.76c-1.56258,0.00041 -2.96912,0.94754 -3.55711,2.39528c-0.58799,1.44774 -0.24018,3.10738 0.87961,4.19722l13.5825,13.5825c0.96314,1.00316 2.39335,1.40727 3.73904,1.05646c1.3457,-0.35081 2.3966,-1.40171 2.74741,-2.74741c0.35081,-1.3457 -0.05329,-2.77591 -1.05646,-3.73904l-13.5825,-13.5825c-0.72296,-0.74317 -1.71569,-1.16244 -2.7525,-1.1625zM122.8875,26.76c-0.99763,0.02973 -1.94449,0.44667 -2.64,1.1625l-13.5825,13.5825c-1.00316,0.96314 -1.40727,2.39335 -1.05646,3.73904c0.35081,1.3457 1.40171,2.3966 2.74741,2.74741c1.3457,0.35081 2.77591,-0.05329 3.73904,-1.05646l13.5825,-13.5825c1.13572,-1.10397 1.47721,-2.79193 0.85991,-4.25055c-0.6173,-1.45861 -2.06674,-2.38864 -3.64991,-2.34195zM76.8,42.27c-8.84976,0 -17.6958,3.3708 -24.435,10.11c-6.528,6.52416 -10.125,15.21114 -10.125,24.4425c0,9.22752 3.597,17.90334 10.125,24.4275c1.9392,1.9392 4.06128,3.55662 6.3,4.9275l47.505,-47.505c-1.38624,-2.25408 -3.01884,-4.37634 -4.935,-6.2925c-6.73728,-6.7392 -15.58524,-10.11 -24.435,-10.11zM172.74,61.3875c-2.11782,0.0331 -3.809,1.77462 -3.78,3.8925v3.84h-3.84c-1.38484,-0.01959 -2.67295,0.708 -3.37109,1.90415c-0.69814,1.19615 -0.69814,2.67555 0,3.8717c0.69814,1.19615 1.98625,1.92374 3.37109,1.90415h3.84v3.84c-0.01959,1.38484 0.708,2.67295 1.90415,3.37109c1.19615,0.69814 2.67555,0.69814 3.8717,0c1.19615,-0.69814 1.92374,-1.98625 1.90415,-3.37109v-3.84h3.84c1.38484,0.01959 2.67295,-0.708 3.37109,-1.90415c0.69814,-1.19615 0.69814,-2.67555 0,-3.8717c-0.69814,-1.19615 -1.98625,-1.92374 -3.37109,-1.90415h-3.84v-3.84c0.01421,-1.03795 -0.39236,-2.03745 -1.12708,-2.77076c-0.73472,-0.73331 -1.735,-1.13795 -2.77292,-1.12174zM11.52,72.96c-1.38484,-0.01959 -2.67295,0.708 -3.37109,1.90415c-0.69814,1.19615 -0.69814,2.67555 0,3.8717c0.69814,1.19615 1.98625,1.92374 3.37109,1.90415h19.2c1.38484,0.01959 2.67295,-0.708 3.37109,-1.90415c0.69814,-1.19615 0.69814,-2.67555 0,-3.8717c-0.69814,-1.19615 -1.98625,-1.92374 -3.37109,-1.90415zM144.2625,96c-4.55094,-0.0306 -9.30264,0.7443 -14.19,2.5875c-14.11968,5.32608 -24.50916,18.19212 -26.145,33.195c-2.81856,25.82784 18.78216,47.42856 44.61,44.61c15.00288,-1.63584 27.86892,-12.02532 33.195,-26.145c2.4576,-6.51648 3.0129,-12.79212 2.3025,-18.675c-0.12672,-1.04448 -1.54224,-1.23366 -1.98,-0.2775c-4.17792,9.18144 -13.73886,15.39096 -24.6675,14.55c-12.02304,-0.92544 -21.9909,-10.8933 -22.9125,-22.9125c-0.84096,-10.92864 5.36856,-20.48574 14.55,-24.6675c0.95616,-0.43776 0.76698,-1.85328 -0.2775,-1.98c-1.47072,-0.17856 -2.96802,-0.2748 -4.485,-0.285zM44.145,105.5025c-0.99763,0.02973 -1.94449,0.44667 -2.64,1.1625l-13.5825,13.5825c-1.00312,0.96315 -1.40719,2.39333 -1.05638,3.73901c0.35082,1.34567 1.4017,2.39656 2.74737,2.74737c1.34567,0.35082 2.77586,-0.05325 3.73901,-1.05637l13.5825,-13.5825c1.13572,-1.10397 1.47721,-2.79193 0.85991,-4.25055c-0.6173,-1.45861 -2.06674,-2.38864 -3.64991,-2.34196zM84.42,161.2275c-2.11782,0.0331 -3.809,1.77462 -3.78,3.8925v3.84h-3.84c-1.38484,-0.01959 -2.67295,0.708 -3.37109,1.90415c-0.69814,1.19615 -0.69814,2.67555 0,3.8717c0.69814,1.19615 1.98625,1.92374 3.37109,1.90415h3.84v3.84c-0.01959,1.38484 0.708,2.67295 1.90415,3.37109c1.19615,0.69814 2.67555,0.69814 3.8717,0c1.19615,-0.69814 1.92374,-1.98625 1.90415,-3.37109v-3.84h3.84c1.38484,0.01959 2.67295,-0.708 3.37109,-1.90415c0.69814,-1.19615 0.69814,-2.67555 0,-3.8717c-0.69814,-1.19615 -1.98625,-1.92374 -3.37109,-1.90415h-3.84v-3.84c0.01421,-1.03795 -0.39236,-2.03745 -1.12708,-2.77076c-0.73472,-0.73331 -1.735,-1.13795 -2.77292,-1.12174z"></path></g></g></svg>