<svg xmlns="http://www.w3.org/2000/svg" x="0px" y="0px" width="28" height="28" viewBox="0 0 172 172" style=" fill:#000000;"><g fill="none" fill-rule="nonzero" stroke="none" stroke-width="1" stroke-linecap="butt" stroke-linejoin="miter" stroke-miterlimit="10" stroke-dasharray="" stroke-dashoffset="0" font-family="none" font-weight="none" font-size="none" text-anchor="none" style="mix-blend-mode: normal"><path d="M0,172v-172h172v172z" fill="none"></path><g><path d="M163.9375,79.4425v13.115c0,2.44562 -1.69313,4.59563 -4.05812,5.18688l-13.94813,3.46688c-1.47812,5.83187 -3.78937,11.31437 -6.7725,16.34l7.39063,12.3625c1.29,2.12312 0.9675,4.81062 -0.80625,6.5575l-9.27188,9.27187c-0.99437,1.02125 -2.365,1.58563 -3.78937,1.58563c-0.9675,0 -1.935,-0.26875 -2.76812,-0.77938l-12.3625,-7.39062c-4.99875,2.98313 -10.48125,5.2675 -16.28625,6.74562l-3.49375,13.975c-0.59125,2.39187 -2.74125,4.05812 -5.21375,4.05812h-13.14187c-2.4725,0 -4.6225,-1.66625 -5.21375,-4.05812l-3.25187,-13.06125l-0.24188,-0.91375c-5.77812,-1.47812 -11.26062,-3.7625 -16.25937,-6.74562l-12.3625,7.39063c-0.83313,0.51063 -1.80062,0.77938 -2.76812,0.77938c-1.42437,0 -2.795,-0.56438 -3.78937,-1.58563l-7.31,-7.31l-1.96188,-1.96187c-1.77375,-1.74687 -2.09625,-4.43437 -0.80625,-6.58437l7.22937,-12.06688l0.16125,-0.26875c-1.34375,-2.23062 -2.52625,-4.56875 -3.5475,-6.9875c-1.31687,-2.98313 -2.39188,-6.10063 -3.19812,-9.29875l-0.86,-0.215l-13.115,-3.27875c-2.39188,-0.59125 -4.05813,-2.74125 -4.05813,-5.21375v-13.115c0,-2.44562 1.69313,-4.59562 4.05812,-5.18688l13.94813,-3.46688c1.47813,-5.83187 3.78938,-11.31437 6.7725,-16.34l-7.39062,-12.3625c-1.29,-2.12313 -0.9675,-4.81063 0.80625,-6.5575l9.29875,-9.27187c0.99437,-1.02125 2.365,-1.58562 3.78938,-1.58562c0.9675,0 1.935,0.26875 2.76812,0.77937l12.33563,7.39063c4.99875,-2.98312 10.48125,-5.2675 16.28625,-6.74562l3.49375,-13.975c0.59125,-2.39187 2.74125,-4.05812 5.21375,-4.05812h13.14188c2.4725,0 4.6225,1.66625 5.21375,4.05812l3.25187,13.03438l0.24188,0.94063c3.17125,0.80625 6.26188,1.85437 9.21813,3.17125c2.44562,1.02125 4.78375,2.23063 7.04125,3.57438l0.26875,-0.16125l12.09375,-7.22937c0.83312,-0.51062 1.80062,-0.77937 2.76812,-0.77937c1.42437,0 2.795,0.56438 3.78938,1.58562l1.96187,1.935l7.31,7.31c1.77375,1.74687 2.09625,4.43437 0.80625,6.58437l-7.39062,12.3625c2.98313,4.99875 5.2675,10.48125 6.74562,16.28625l0.83312,0.215l13.14188,3.27875c2.39188,0.59125 4.05813,2.74125 4.05813,5.21375z" fill="#c2cde7"></path><path d="M145.90437,70.735l0.83313,0.215l-75.7875,75.86813l-0.24188,-0.91375c-5.77812,-1.47812 -11.26063,-3.7625 -16.25937,-6.74562l-12.3625,7.39063c-0.83312,0.51063 -1.80062,0.77938 -2.76812,0.77938c-1.42437,0 -2.795,-0.56438 -3.78937,-1.58563l-1.935,-1.935l110.21437,-110.24125l1.935,1.935c1.77375,1.74687 2.09625,4.43437 0.80625,6.58438l-7.39062,12.3625c2.98313,4.99875 5.2675,10.48125 6.74562,16.28625zM138.43312,28.19188l-110.21437,110.24125l-1.96188,-1.96187c-1.77375,-1.74687 -2.09625,-4.43437 -0.80625,-6.58437l7.22937,-12.06688l85.14,-85.14l12.09375,-7.22938c0.83312,-0.51062 1.80062,-0.77937 2.76812,-0.77937c1.42437,0 2.795,0.56438 3.78938,1.58563zM110.51,29.26688l-81.21625,81.29688c-1.31687,-2.98313 -2.39187,-6.10063 -3.19812,-9.29875l-0.86,-0.215l75.81438,-75.895l0.24188,0.94063c3.17125,0.80625 6.26187,1.85438 9.21812,3.17125z" fill="#d3dded"></path><path d="M86,40.3125c-25.23251,0 -45.6875,20.45499 -45.6875,45.6875c0,25.23251 20.45499,45.6875 45.6875,45.6875c25.23251,0 45.6875,-20.45499 45.6875,-45.6875c0,-25.23251 -20.45499,-45.6875 -45.6875,-45.6875z" fill="#acb7d0"></path><path d="M94.0625,75.31181c2.82725,2.13656 4.7515,5.34812 5.20838,9.04075l17.77781,10.26356v0c0.76325,-2.74663 1.20131,-5.62763 1.20131,-8.61613c0,-15.02312 -10.28506,-27.60869 -24.1875,-31.19381zM108.97544,108.575l-17.69719,-10.21788c-1.62325,0.69338 -3.40506,1.08038 -5.27825,1.08038c-1.87319,0 -3.655,-0.387 -5.27556,-1.08038l-17.69987,10.21788c-0.02419,-0.02688 -0.06988,-0.04031 -0.09675,-0.0645c5.85606,6.00119 14.02338,9.7395 23.07219,9.7395c9.04344,0 17.20538,-3.73294 23.06144,-9.72875c-0.02419,0.01881 -0.06719,0.03225 -0.086,0.05375zM54.94863,94.61613l17.77781,-10.26356c0.45687,-3.69531 2.38112,-6.90419 5.20837,-9.04075v-20.50294c-13.89975,3.58244 -24.18481,16.168 -24.18481,31.19112c0,2.9885 0.43806,5.8695 1.19863,8.61613z" fill="#f9dd8f"></path><path d="M92.5575,166.625h-13.14187c-3.70337,0 -6.91763,-2.50744 -7.81794,-6.09794l-3.10137,-12.43775c-4.87244,-1.37062 -9.58094,-3.32444 -14.03144,-5.8265l-11.008,6.59781c-3.11481,1.85975 -7.28581,1.33569 -9.83625,-1.20669l-9.27188,-9.27725c-2.62838,-2.62569 -3.12288,-6.68113 -1.20669,-9.86581l6.58975,-10.98381c-2.49937,-4.44512 -4.45319,-9.15094 -5.82381,-14.02875l-12.43238,-3.12019c-3.5905,-0.90031 -6.10062,-4.11725 -6.10062,-7.82063v-13.10694c0.01075,-3.698 2.51819,-6.90419 6.09525,-7.80181l12.42431,-3.096c1.37331,-4.89394 3.32981,-9.61588 5.83188,-14.07175l-6.58975,-11.00263c-1.9135,-3.17394 -1.41631,-7.22669 1.20937,-9.85506l9.30144,-9.27456c2.55581,-2.55044 6.73756,-3.06644 9.83356,-1.20669l10.9865,6.59244c4.44512,-2.49937 9.15094,-4.45319 14.03144,-5.82381l3.12288,-12.43237c0.90031,-3.59319 4.11725,-6.10331 7.82062,-6.10331h13.14188c3.70337,0 6.91762,2.50744 7.81794,6.09794l3.10137,12.43775c4.87781,1.37331 9.58363,3.32712 14.02875,5.82381l11.01069,-6.59513c3.10944,-1.85975 7.28312,-1.33569 9.83625,1.20937l9.26919,9.23963c2.63106,2.62837 3.12556,6.6865 1.20669,9.87119l-6.59244,11.00531c2.49937,4.44513 4.45319,9.15094 5.8265,14.03413l12.43237,3.12288c3.59319,0.90031 6.10331,4.11725 6.10331,7.82062v13.10694c-0.01075,3.698 -2.51819,6.90419 -6.09525,7.80181l-12.42431,3.096c-1.376,4.89394 -3.3325,9.61588 -5.83187,14.07175l6.58975,11.00263c1.9135,3.17394 1.41631,7.22937 -1.21206,9.85775l-9.26919,9.26919c-2.5585,2.55313 -6.7295,3.07181 -9.83625,1.21206l-11.01069,-6.59781c-4.45319,2.50206 -9.159,4.45587 -14.03681,5.8265l-3.12288,12.43238c-0.89763,3.59319 -4.11456,6.10331 -7.81794,6.10331zM54.44069,136.45781c0.47569,0 0.95137,0.12631 1.37331,0.37894c4.8805,2.90519 10.11844,5.07937 15.566,6.46344c0.95944,0.24188 1.70656,0.99169 1.94575,1.95381l3.483,13.96963c0.301,1.19056 1.37062,2.02638 2.60688,2.02638h13.14187c1.23356,0 2.30588,-0.8385 2.60688,-2.03444l3.50719,-13.96425c0.23919,-0.95944 0.98631,-1.70925 1.94575,-1.95381c5.44756,-1.38406 10.68819,-3.55556 15.56869,-6.46075c0.84656,-0.50525 1.90812,-0.50256 2.75469,0.00538l12.36519,7.40944c1.03469,0.61812 2.42681,0.44344 3.27875,-0.40312l9.2665,-9.2665c0.87613,-0.87613 1.04544,-2.23063 0.40581,-3.2895l-7.40675,-12.36787c-0.50794,-0.84656 -0.50794,-1.90544 -0.00269,-2.752c2.90519,-4.88319 5.07937,-10.13456 6.46881,-15.61169c0.24188,-0.95675 0.99438,-1.70656 1.9565,-1.94844l13.95619,-3.47762c1.18519,-0.29563 2.021,-1.36525 2.02369,-2.59613v-13.09619c0,-1.23356 -0.83581,-2.30319 -2.03175,-2.60688v0l-13.96425,-3.50719c-0.95675,-0.23919 -1.70656,-0.98631 -1.95112,-1.94575c-1.38675,-5.45563 -3.56094,-10.69356 -6.46344,-15.566c-0.50525,-0.84925 -0.50525,-1.90812 0.00269,-2.75469l7.40675,-12.36787c0.645,-1.06963 0.47837,-2.42412 -0.39775,-3.30294l-9.2665,-9.23962c-0.85194,-0.84656 -2.23869,-1.032 -3.28413,-0.40313l-12.3625,7.40406c-0.84656,0.50525 -1.90275,0.51062 -2.75469,0.00538c-4.87512,-2.89981 -10.11575,-5.074 -15.566,-6.46075c-0.95675,-0.24456 -1.70656,-0.99437 -1.94575,-1.95381l-3.483,-13.96963c-0.301,-1.18787 -1.37062,-2.02369 -2.60687,-2.02369h-13.14187c-1.23356,0 -2.30588,0.8385 -2.60688,2.03444l-3.50719,13.96425c-0.23919,0.95675 -0.98631,1.70925 -1.94575,1.95112c-5.45294,1.38675 -10.69087,3.55825 -15.56331,6.46075c-0.85194,0.50525 -1.90812,0.50256 -2.75737,-0.00538l-12.34369,-7.40675c-1.02931,-0.61813 -2.42412,-0.44344 -3.27606,0.40312l-9.29875,9.27187c-0.87344,0.87344 -1.04006,2.22525 -0.40044,3.28413l7.40675,12.36787c0.50794,0.84656 0.50794,1.90544 0.00269,2.752c-2.90519,4.88588 -5.08206,10.13725 -6.46881,15.61169c-0.24188,0.95675 -0.99437,1.70656 -1.9565,1.94844l-13.95619,3.47762c-1.1825,0.29563 -2.01831,1.36256 -2.021,2.59344v13.09887c0,1.23356 0.83581,2.30319 2.03175,2.60688l13.96694,3.50719c0.95675,0.23919 1.70656,0.98631 1.95112,1.94575c1.38675,5.45025 3.55825,10.68819 6.46075,15.56331c0.50525,0.84925 0.50525,1.91081 -0.00538,2.75738l-7.40675,12.34637c-0.64231,1.06425 -0.47569,2.41606 0.40044,3.29487l9.27456,9.27188c0.84388,0.84119 2.23063,1.02394 3.27606,0.39775l12.3625,-7.40675c0.42194,-0.25531 0.903,-0.38431 1.37869,-0.38431z" fill="#8d6c9f"></path><path d="M134.375,88.6875h-5.375c-1.4835,0 -2.6875,-1.20131 -2.6875,-2.6875c0,-1.48619 1.204,-2.6875 2.6875,-2.6875h5.375c1.4835,0 2.6875,1.20131 2.6875,2.6875c0,1.48619 -1.204,2.6875 -2.6875,2.6875zM132.00731,103.63806c-0.27412,0 -0.55631,-0.043 -0.83044,-0.13169l-5.11162,-1.66088c-1.41094,-0.45956 -2.18494,-1.97531 -1.72538,-3.38625c0.45688,-1.41094 1.97263,-2.18494 3.38625,-1.72806l5.11163,1.66088c1.41094,0.45956 2.18494,1.97531 1.72538,3.38625c-0.36819,1.13681 -1.42169,1.85975 -2.55581,1.85975zM125.13538,117.12125c-0.54825,0 -1.09919,-0.16931 -1.57756,-0.51331l-4.34838,-3.1605c-1.20131,-0.87075 -1.46738,-2.55044 -0.59394,-3.75175c0.87344,-1.19862 2.55044,-1.46469 3.75444,-0.59394l4.34838,3.1605c1.20131,0.87075 1.46738,2.55044 0.59394,3.75175c-0.52675,0.72563 -1.34644,1.10725 -2.17687,1.10725zM114.43644,127.82556c-0.83313,0 -1.65012,-0.38431 -2.17688,-1.10725l-3.15781,-4.34838c-0.87344,-1.20131 -0.60737,-2.881 0.59394,-3.75444c1.204,-0.86538 2.88369,-0.60738 3.75444,0.59663l3.15781,4.34838c0.87344,1.20131 0.60737,2.881 -0.59394,3.75444c-0.47837,0.34131 -1.02931,0.51062 -1.57756,0.51062zM100.95056,134.69481c-1.13412,0 -2.18762,-0.72294 -2.55581,-1.85706l-1.66088,-5.11163c-0.45687,-1.40825 0.31444,-2.92669 1.72538,-3.38625c1.419,-0.45419 2.92938,0.31444 3.38625,1.72806l1.66088,5.11163c0.45688,1.40825 -0.31444,2.92669 -1.72537,3.38625c-0.27681,0.08869 -0.55631,0.129 -0.83044,0.129zM126.89569,75.4005c-1.13412,0 -2.18762,-0.72294 -2.55581,-1.85706c-0.45687,-1.40825 0.31444,-2.92669 1.72538,-3.38625l5.11162,-1.66088c1.41363,-0.45419 2.92938,0.31444 3.38625,1.72806c0.45687,1.40825 -0.31444,2.92669 -1.72538,3.38625l-5.11163,1.66087c-0.27681,0.086 -0.55631,0.129 -0.83044,0.129zM120.78969,63.41425c-0.83313,0 -1.65012,-0.38431 -2.17688,-1.10725c-0.87344,-1.20131 -0.60737,-2.881 0.59394,-3.75175l4.34838,-3.1605c1.204,-0.87344 2.88369,-0.61006 3.75444,0.59394c0.87344,1.20131 0.60738,2.881 -0.59394,3.75175l-4.34838,3.1605c-0.47837,0.344 -1.02931,0.51331 -1.57756,0.51331zM111.27325,53.9005c-0.54825,0 -1.09919,-0.16663 -1.57756,-0.51063c-1.20131,-0.87344 -1.46738,-2.55312 -0.59394,-3.75444l3.15781,-4.34837c0.87344,-1.19862 2.55313,-1.47006 3.75444,-0.59663c1.20131,0.87344 1.46738,2.55313 0.59394,3.75444l-3.15781,4.34837c-0.52675,0.72294 -1.34644,1.10725 -2.17687,1.10725zM99.287,47.79181c-0.27412,0 -0.55631,-0.043 -0.83044,-0.13169c-1.41094,-0.45956 -2.18494,-1.97531 -1.72538,-3.38625l1.66088,-5.11163c0.45688,-1.41094 1.97531,-2.18225 3.38625,-1.72806c1.41094,0.45956 2.18494,1.97531 1.72537,3.38625l-1.66088,5.11163c-0.36819,1.1395 -1.42169,1.85975 -2.55581,1.85975zM86,134.375c-26.67344,0 -48.375,-21.70156 -48.375,-48.375c0,-15.35906 7.44706,-29.95756 19.91706,-39.06012c1.19863,-0.87613 2.881,-0.61006 3.75444,0.58588c0.87613,1.19863 0.61275,2.881 -0.58588,3.75444c-11.09131,8.09475 -17.71062,21.07269 -17.71062,34.71981c0,23.70913 19.29088,43 43,43c1.4835,0 2.6875,1.20131 2.6875,2.6875c0,1.48619 -1.204,2.6875 -2.6875,2.6875zM72.5625,45.01563c-1.14756,0 -2.21181,-0.74175 -2.56656,-1.89737c-0.43806,-1.41631 0.36012,-2.92131 1.77912,-3.35937c4.601,-1.41363 9.38744,-2.13388 14.22494,-2.13388c1.4835,0 2.6875,1.20131 2.6875,2.6875c0,1.48619 -1.204,2.6875 -2.6875,2.6875c-4.3,0 -8.557,0.63694 -12.64737,1.89737c-0.26337,0.08063 -0.52944,0.11825 -0.79013,0.11825zM117.05138,97.30363c-0.46494,0 -0.92987,-0.12094 -1.34375,-0.36013l-17.77781,-10.26356c-0.72831,-0.42194 -1.22012,-1.161 -1.32225,-1.99681c-0.36012,-2.90519 -1.84094,-5.47175 -4.16294,-7.22669c-0.67456,-0.50794 -1.06963,-1.30344 -1.06963,-2.14731v-20.50294c0,-0.83312 0.38431,-1.61519 1.04275,-2.12312c0.65575,-0.51063 1.51844,-0.68263 2.31663,-0.48106c15.42894,3.98019 26.20313,17.87725 26.20313,33.798c0,3.08794 -0.43806,6.22962 -1.29537,9.33638c-0.22306,0.80088 -0.80356,1.45394 -1.57219,1.76838c-0.32787,0.13437 -0.67456,0.19888 -1.01856,0.19888zM101.71113,82.65675l13.49662,7.79375c0.2365,-1.49156 0.35475,-2.98044 0.35475,-4.4505c0,-12.27919 -7.57875,-23.13669 -18.8125,-27.50656v15.55256c2.53969,2.27631 4.25969,5.26481 4.96112,8.61075z" fill="#8d6c9f"></path><path d="M86,120.9375c-9.47881,0 -18.35831,-3.74906 -24.99644,-10.55112c-0.99706,-1.02125 -1.02125,-2.63913 -0.05644,-3.69263c0.36819,-0.40044 0.83581,-0.66919 1.33031,-0.79281l17.10325,-9.87387c0.73369,-0.42194 1.62325,-0.47837 2.39994,-0.14513c2.68481,1.15025 5.75663,1.15025 8.44144,0c0.77669,-0.33325 1.66356,-0.2795 2.39994,0.14513l17.14356,9.90075c0.48644,0.13169 0.94063,0.40044 1.30075,0.80356c0.94331,1.0535 0.90569,2.65525 -0.08062,3.66575c-6.63544,6.79669 -15.50956,10.54038 -24.98569,10.54038zM67.53419,109.07488c5.22719,4.20594 11.66375,6.48763 18.46581,6.48763c6.80475,0 13.24131,-2.28169 18.46581,-6.48763l-13.43213,-7.75612c-3.24381,1.06963 -6.82088,1.06963 -10.06469,0zM62.92781,108.5105h0.02688zM54.94863,97.30363c-0.344,0 -0.69069,-0.0645 -1.01856,-0.19888c-0.76863,-0.31444 -1.34912,-0.9675 -1.57219,-1.76838c-0.85731,-3.10675 -1.29537,-6.24844 -1.29537,-9.33638c0,-15.92075 10.77419,-29.81781 26.20313,-33.79531c0.79819,-0.20425 1.66087,-0.03225 2.31663,0.48106c0.65844,0.50794 1.04275,1.29 1.04275,2.12312v20.50294c0,0.84119 -0.39506,1.63669 -1.06694,2.14463c-2.322,1.75494 -3.80281,4.3215 -4.16294,7.22669c-0.10481,0.8385 -0.59394,1.57488 -1.32225,1.99681l-17.77781,10.26356c-0.41656,0.23919 -0.87881,0.36013 -1.34644,0.36013zM75.25,58.49344c-11.23375,4.36988 -18.8125,15.22738 -18.8125,27.50656c0,1.47006 0.11825,2.95894 0.35206,4.4505l13.49662,-7.79375c0.70144,-3.34594 2.42144,-6.33175 4.96112,-8.61075v-15.55256zM86,80.625c-2.96853,0 -5.375,2.40647 -5.375,5.375c0,2.96853 2.40647,5.375 5.375,5.375c2.96853,0 5.375,-2.40647 5.375,-5.375c0,-2.96853 -2.40647,-5.375 -5.375,-5.375z" fill="#8d6c9f"></path></g></g></svg>