<svg xmlns="http://www.w3.org/2000/svg" x="0px" y="0px" width="40" height="40" viewBox="0 0 192 192" style=" fill:#000000;">
    <g fill="none" fill-rule="nonzero" stroke="none" stroke-width="1" stroke-linecap="butt" stroke-linejoin="miter" stroke-miterlimit="10" stroke-dasharray="" stroke-dashoffset="0" font-family="none" font-weight="none" font-size="none" text-anchor="none" style="mix-blend-mode: normal">
        <path d="M0,192v-192h192v192z" fill="none"></path>
        <g>
            <g id="surface1">
                <path d="M22,162h148c7.73438,0 14,-6.26562 14,-14v-104c0,-7.73438 -6.26562,-14 -14,-14h-148c-7.73438,0 -14,6.26562 -14,14v104c0,7.73438 6.26562,14 14,14z" fill="#e0e0e0"></path>
                <path d="M104,162h66c7.73438,0 14,-6.26562 14,-14v-104c0,-7.73438 -6.26562,-14 -14,-14h-148c-7.73438,0 -14,6.26562 -14,14z" fill="#d9d9d9"></path>
                <path d="M26.98438,162h143.01562c7.73438,0 14,-6.26562 14,-14v-102z" fill="#eeeeee"></path>
                <path d="M102.98438,162h67.01562c7.73438,0 14,-6.26562 14,-14v-102l-108.92188,80.46875z" fill="#e0e0e0"></path>
                <path d="M170,38h-148c-7.73438,0 -14,-1.73438 -14,6v104c0,7.73438 6.26562,14 14,14h6v-114h136v114h6c7.73438,0 14,-6.26562 14,-14v-104c0,-7.73438 -6.26562,-6 -14,-6z" fill="#ca3737"></path>
                <path d="M170,30h-148c-7.73438,0 -14,6.14062 -14,14c0,4.82812 6.07812,9.03125 6.07812,9.03125l81.92188,58l81.92188,-58c0,0 6.07812,-4.20313 6.07812,-9.03125c0,-7.85938 -6.26562,-14 -14,-14z" fill="#f5f5f5"></path>
                <path d="M172.98438,30.32812l-76.98438,53.67188l-76.98438,-53.67188c-6.29687,1.34375 -11.01562,6.85938 -11.01562,13.67188c0,4.82812 6.07812,9.03125 6.07812,9.03125l81.92188,58l81.92188,-58c0,0 6.07812,-4.20313 6.07812,-9.03125c0,-6.8125 -4.71875,-12.32812 -11.01562,-13.67188z" fill="#e84f4b"></path>
            </g>
        </g>
    </g>
</svg>