<svg xmlns="http://www.w3.org/2000/svg" x="0px" y="0px" width="40" height="40" viewBox="0 0 192 192" style=" fill:#000000;">
    <g fill="none" fill-rule="nonzero" stroke="none" stroke-width="1" stroke-linecap="butt" stroke-linejoin="miter" stroke-miterlimit="10" stroke-dasharray="" stroke-dashoffset="0" font-family="none" font-weight="none" font-size="none" text-anchor="none" style="mix-blend-mode: normal">
        <path d="M0,192v-192h192v192z" fill="none"></path>
        <g>
            <g id="surface1">
                <path d="M48.76562,78.21875c-7.75,-6.96875 -19.15625,-6.90625 -25.45312,0.125c-6.29688,7.01562 -5.20312,20.07812 3.70312,26.51562z" fill="#ffffff"></path>
                <path d="M143.23438,78.21875c7.75,-6.96875 19.15625,-6.90625 25.45312,0.125c6.29688,7.01562 5.20312,20.07812 -3.70312,26.51562z" fill="#ffffff"></path>
                <path d="M167.28125,41.90625c0,7.71875 -6.26563,14 -14,14c-7.73438,0 -14,-6.28125 -14,-14c0,-7.73438 6.26562,-14 14,-14c7.73437,0 14,6.26562 14,14z" fill="#ffffff"></path>
                <path d="M168.6875,114.4375c0,-28.59375 -32.39062,-51.78125 -72.34375,-51.78125c-39.95313,0 -72.34375,23.1875 -72.34375,51.78125c0,28.60938 32.39062,51.79688 72.34375,51.79688c39.95312,0 72.34375,-23.1875 72.34375,-51.79688z" fill="#ffffff"></path>
                <path d="M133,105.5625c0,6.375 -5.17188,11.53125 -11.54688,11.53125c-6.35937,0 -11.53125,-5.15625 -11.53125,-11.53125c0,-6.375 5.17188,-11.53125 11.53125,-11.53125c6.375,0 11.54688,5.15625 11.54688,11.53125z" fill="#d84315"></path>
                <path d="M82.07812,105.5625c0,6.375 -5.17187,11.53125 -11.53125,11.53125c-6.375,0 -11.54688,-5.15625 -11.54688,-11.53125c0,-6.375 5.17188,-11.53125 11.54688,-11.53125c6.35938,0 11.53125,5.15625 11.53125,11.53125z" fill="#d84315"></path>
                <path d="M96.01562,139.60938c-13.01562,0 -24.5625,-2.98438 -32.01562,-7.60938c4.09375,8.17188 16.78125,16 32.01562,16c15.20313,0 27.89063,-7.82812 31.98438,-16c-7.42188,4.625 -18.98438,7.60938 -31.98438,7.60938z" fill="#37474f"></path>
                <path d="M167.3125,108.10938l-4.67188,-6.48438c3.32813,-2.40625 5.48438,-6.23438 5.95313,-10.5c0.42187,-3.92188 -0.625,-7.60938 -2.89063,-10.125c-2.28125,-2.54688 -5.5625,-3.95312 -9.21875,-3.96875c-3.71875,0.04687 -7.57812,1.45312 -10.59375,4.15625l-5.34375,-5.95312c4.5,-4.03125 10.1875,-6.09375 15.96875,-6.20312c5.95313,0.03125 11.32813,2.375 15.14063,6.625c3.76562,4.20312 5.54687,10.15625 4.89062,16.32812c-0.70312,6.51562 -4.0625,12.40625 -9.23438,16.125z" fill="#37474f"></path>
                <path d="M24.67188,108.10938c-5.15625,-3.73438 -8.51562,-9.60938 -9.21875,-16.125c-0.67187,-6.17188 1.10938,-12.125 4.89063,-16.32812c3.79687,-4.23438 9.1875,-6.59375 15.125,-6.625c0.04687,0 0.07812,0 0.10937,0c5.76563,0 11.40625,2.20312 15.85938,6.21875l-5.34375,5.95312c-3,-2.71875 -6.75,-4.03125 -10.57813,-4.17187c-3.65625,0.01562 -6.9375,1.42187 -9.21875,3.98437c-2.25,2.5 -3.3125,6.1875 -2.89062,10.10938c0.46875,4.26562 2.625,8.09375 5.95312,10.5z" fill="#37474f"></path>
                <path d="M100,67.35938h-8c0,-11.54688 0,-42.1875 19.92188,-42.1875c8.60938,0 12.76562,4.84375 15.79688,8.375c2.51562,2.9375 3.84375,4.34375 6.46875,4.34375h5.48438v8h-5.48438c-6.42188,0 -9.8125,-3.95312 -12.54688,-7.14062c-2.67187,-3.125 -4.78125,-5.59375 -9.73437,-5.59375c-8,0.01562 -11.90625,11.20312 -11.90625,34.20312z" fill="#37474f"></path>
                <path d="M96.34375,67.79688c37.6875,0 68.34375,20.92188 68.34375,46.64062c0,25.73438 -30.65625,46.65625 -68.34375,46.65625c-37.6875,0 -68.34375,-20.92188 -68.34375,-46.65625c0,-25.71875 30.65625,-46.64062 68.34375,-46.64062M96.34375,59.79688c-42.17188,0 -76.34375,24.46875 -76.34375,54.64062c0,30.1875 34.1875,54.65625 76.34375,54.65625c42.15625,0 76.34375,-24.46875 76.34375,-54.65625c0,-30.17188 -34.1875,-54.64062 -76.34375,-54.64062z" fill="#37474f"></path>
                <path d="M153.28125,31.90625c5.51562,0 10,4.48437 10,10c0,5.5 -4.48438,10 -10,10c-5.51563,0 -10,-4.5 -10,-10c0,-5.51563 4.48437,-10 10,-10M153.28125,23.90625c-9.9375,0 -18,8.04687 -18,18c0,9.9375 8.0625,18 18,18c9.9375,0 18,-8.0625 18,-18c0,-9.95313 -8.04688,-18 -18,-18z" fill="#37474f"></path>
            </g>
        </g>
    </g>
</svg>