<svg xmlns="http://www.w3.org/2000/svg" x="0px" y="0px" width="40" height="40" viewBox="0 0 192 192" style=" fill:#000000;">
    <g fill="none" fill-rule="nonzero" stroke="none" stroke-width="1" stroke-linecap="butt" stroke-linejoin="miter" stroke-miterlimit="10" stroke-dasharray="" stroke-dashoffset="0" font-family="none" font-weight="none" font-size="none" text-anchor="none" style="mix-blend-mode: normal">
        <path d="M0,192v-192h192v192z" fill="none"></path>
        <g>
            <g id="surface1">
                <path d="M168,148c0,11.04688 -8.95312,20 -20,20h-104c-11.04688,0 -20,-8.95312 -20,-20v-104c0,-11.04688 8.95312,-20 20,-20h104c11.04688,0 20,8.95312 20,20z" fill="#01579b"></path>
                <path d="M128,139.5625c0,0.375 -0.14062,0.73438 -0.4375,0.98438c-0.34375,0.3125 -8.67188,7.45312 -27.78125,7.45312c-22.89063,0 -23.5625,-25.64062 -23.5625,-28.5625l-0.21875,-31.4375h-10.6875c-0.73438,0 -1.3125,-0.59375 -1.3125,-1.3125v-12.40625c0,-0.54688 0.32812,-1.03125 0.82812,-1.23438c0.21875,-0.07812 20.6875,-8.32812 20.6875,-27.73438c0,-0.73438 0.57813,-1.3125 1.3125,-1.3125h11.85938c0.73438,0 1.3125,0.57812 1.3125,1.3125v26.6875h22.6875c0.71875,0 1.3125,0.57812 1.3125,1.3125v13.375c0,0.73438 -0.59375,1.3125 -1.3125,1.3125h-22.6875v30.84375c0,0.40625 1.26562,10.07812 11.04688,10.07812c8.07812,0 14.875,-4.17188 14.95312,-4.21875c0.40625,-0.26562 0.90625,-0.26562 1.32812,-0.04687c0.42188,0.23437 0.67188,0.6875 0.67188,1.15625z" fill="#ffffff"></path>
            </g>
        </g>
    </g>
</svg>