<svg xmlns="http://www.w3.org/2000/svg" x="0px" y="0px" width="40" height="40" viewBox="0 0 192 192" style=" fill:#000000;">
    <g fill="none" fill-rule="none" stroke="none" stroke-width="1" stroke-linecap="butt" stroke-linejoin="miter" stroke-miterlimit="10" stroke-dasharray="" stroke-dashoffset="0" font-family="none" font-weight="none" font-size="none" text-anchor="none" style="mix-blend-mode: normal">
        <path d="M0,192v-192h192v192z" fill="none" fill-rule="nonzero"></path>
        <g>
            <g id="surface1">
                <path d="M19.46875,173.21875l10.78125,-39.34375c-6.65625,-11.51562 -10.14062,-24.57812 -10.14062,-37.95312c0.01562,-41.85938 34.07812,-75.92188 75.95312,-75.92188c20.3125,0.01562 39.375,7.92188 53.71875,22.26562c14.32812,14.34375 22.23437,33.42188 22.21875,53.70313c-0.01562,41.875 -34.09375,75.92187 -75.9375,75.92187c-0.01562,0 0,0 0,0h-0.03125c-12.71875,0 -25.20313,-3.1875 -36.29688,-9.23437z" fill="#ffffff" fill-rule="nonzero"></path>
                <path d="M19.46875,175.21875c-0.53125,0 -1.03125,-0.21875 -1.42188,-0.59375c-0.5,-0.51562 -0.6875,-1.25 -0.5,-1.9375l10.54688,-38.54688c-6.53125,-11.625 -9.98438,-24.82812 -9.98438,-38.21875c0.01562,-42.96875 34.98438,-77.92188 77.95312,-77.92188c20.82812,0.01562 40.40625,8.125 55.125,22.85938c14.71875,14.71875 22.82812,34.29688 22.8125,55.10938c-0.01562,42.96875 -34.98438,77.92187 -77.9375,77.92187c-12.76562,0 -25.375,-3.14062 -36.57812,-9.10937l-39.5,10.35937c-0.17188,0.04688 -0.34375,0.07813 -0.51562,0.07813z" fill="#ffffff" fill-rule="nonzero"></path>
                <path d="M96.0625,20c20.3125,0.01562 39.375,7.92188 53.71875,22.26562c14.32812,14.34375 22.23437,33.42188 22.21875,53.70313c-0.01562,41.875 -34.09375,75.92187 -75.9375,75.92187h-0.03125c-12.71875,0 -25.20313,-3.1875 -36.29688,-9.23437l-40.26562,10.5625l10.78125,-39.34375c-6.65625,-11.51562 -10.14062,-24.57812 -10.14062,-37.95312c0.01562,-41.85938 34.07812,-75.92188 75.95312,-75.92188M96.0625,171.89062v0M96.0625,171.89062v0M96.0625,16c-44.07812,0 -79.9375,35.84375 -79.95312,79.92188c0,13.46875 3.39062,26.73438 9.84375,38.48438l-10.34375,37.75c-0.375,1.39062 0.01562,2.85937 1.01562,3.875c0.76562,0.76562 1.79688,1.1875 2.84375,1.1875c0.34375,0 0.6875,-0.04688 1.01562,-0.14063l38.75,-10.15625c11.3125,5.875 24,8.96875 36.79688,8.98438c44.09375,0 79.95312,-35.85938 79.96875,-79.92188c0.01562,-21.35938 -8.29688,-41.4375 -23.39062,-56.54688c-15.09375,-15.10938 -35.1875,-23.42188 -56.54688,-23.4375z" fill="#cfd8dc" fill-rule="nonzero"></path>
                <path d="M140.70312,51.32812c-11.92187,-11.92187 -27.76562,-18.5 -44.625,-18.5c-34.8125,0 -63.14062,28.29688 -63.15625,63.09375c0,11.92188 3.34375,23.53125 9.65625,33.57812l1.5,2.39062l-6.375,23.28125l23.89063,-6.26562l2.3125,1.375c9.6875,5.75 20.79687,8.79687 32.125,8.79687h0.03125c34.78125,0 63.09375,-28.3125 63.10938,-63.10937c0.01562,-16.85938 -6.54688,-32.71875 -18.46875,-44.64063z" fill="#40c351" fill-rule="nonzero"></path>
                <path d="M77.07812,64.1875c-1.42187,-3.17188 -2.92187,-3.23438 -4.28125,-3.28125c-1.10938,-0.04688 -2.375,-0.04688 -3.64062,-0.04688c-1.25,0 -3.3125,0.46875 -5.04688,2.375c-1.75,1.89062 -6.65625,6.48438 -6.65625,15.82812c0,9.32812 6.8125,18.35938 7.75,19.625c0.95313,1.25 13.14063,21.03125 32.42188,28.64062c16.03125,6.3125 19.29688,5.0625 22.76562,4.75c3.48438,-0.32812 11.23438,-4.59375 12.8125,-9.03125c1.57813,-4.42188 1.57813,-8.21875 1.10938,-9.01562c-0.46875,-0.79688 -1.73438,-1.26563 -3.64062,-2.21875c-1.89062,-0.95312 -11.21875,-5.53125 -12.96875,-6.17188c-1.73437,-0.625 -3,-0.9375 -4.26562,0.95313c-1.26562,1.89062 -4.90625,6.17187 -6.01562,7.4375c-1.10938,1.26562 -2.20312,1.42187 -4.10938,0.48437c-1.89062,-0.95312 -8,-2.95312 -15.25,-9.42187c-5.64062,-5.03125 -9.45312,-11.23438 -10.5625,-13.14063c-1.10938,-1.89062 -0.125,-2.92187 0.82812,-3.875c0.85938,-0.84375 1.90625,-2.21875 2.85938,-3.32812c0.9375,-1.10938 1.25,-1.89062 1.89062,-3.15625c0.625,-1.26563 0.3125,-2.375 -0.15625,-3.32813c-0.46875,-0.95312 -4.15625,-10.32812 -5.84375,-14.07812z" fill="#ffffff" fill-rule="evenodd"></path>
            </g>
        </g>
    </g>
</svg>